# Blender 5.0.1
# www.blender.org
mtllib claw.mtl
o Plane
v -0.886494 -2.103466 -0.000000
v 0.886494 -2.103466 -0.000000
v -1.108118 2.103466 0.000000
v 1.108118 2.103466 0.000000
v 0.000000 -2.103466 -0.000000
v 0.443247 2.103466 0.000000
v -0.443247 2.103466 0.000000
vn -0.0000 -0.0000 1.0000
vt 1.000000 0.000000
vt 1.000000 1.000000
vt 0.800000 1.000000
vt 0.200000 0.000000
vt 0.200000 1.000000
vt 0.000000 1.000000
vt 0.600000 0.000000
vt 0.600000 1.000000
vt 0.400000 1.000000
s 1
f 2/1/1 4/2/1 6/3/1
f 1/4/1 7/5/1 3/6/1
f 5/7/1 6/8/1 7/9/1
