# Blender 5.0.1
# www.blender.org
mtllib sm_cone.mtl
o Cylinder
v 0.000000 -3.971943 0.000000
v 0.000000 3.971943 -1.000000
v 0.000000 -3.971943 0.000000
v 0.222521 3.971943 -0.974928
v 0.000000 -3.971943 0.000000
v 0.433884 3.971943 -0.900969
v 0.000000 -3.971943 0.000000
v 0.623490 3.971943 -0.781831
v 0.000000 -3.971943 0.000000
v 0.781831 3.971943 -0.623490
v 0.000000 -3.971943 0.000000
v 0.900969 3.971943 -0.433884
v 0.000000 -3.971943 0.000000
v 0.974928 3.971943 -0.222521
v 0.000000 -3.971943 -0.000000
v 1.000000 3.971943 0.000000
v 0.000000 -3.971943 0.000000
v 0.974928 3.971943 0.222521
v 0.000000 -3.971943 0.000000
v 0.900969 3.971943 0.433884
v 0.000000 -3.971943 0.000000
v 0.781831 3.971943 0.623490
v 0.000000 -3.971943 0.000000
v 0.623490 3.971943 0.781831
v 0.000000 -3.971943 0.000000
v 0.433884 3.971943 0.900969
v 0.000000 -3.971943 0.000000
v 0.222521 3.971943 0.974928
v 0.000000 -3.971943 0.000000
v 0.000000 3.971943 1.000000
v 0.000000 -3.971943 0.000000
v -0.222521 3.971943 0.974928
v 0.000000 -3.971943 0.000000
v -0.433884 3.971943 0.900969
v 0.000000 -3.971943 0.000000
v -0.623490 3.971943 0.781831
v 0.000000 -3.971943 0.000000
v -0.781831 3.971943 0.623490
v 0.000000 -3.971943 0.000000
v -0.900969 3.971943 0.433884
v 0.000000 -3.971943 0.000000
v -0.974928 3.971943 0.222521
v 0.000000 -3.971943 -0.000000
v -1.000000 3.971943 0.000000
v 0.000000 -3.971943 0.000000
v -0.974928 3.971943 -0.222521
v 0.000000 -3.971943 0.000000
v -0.900969 3.971943 -0.433884
v 0.000000 -3.971943 0.000000
v -0.781831 3.971943 -0.623490
v 0.000000 -3.971943 0.000000
v -0.623490 3.971943 -0.781831
v 0.000000 -3.971943 0.000000
v -0.433884 3.971943 -0.900969
v 0.000000 -3.971943 0.000000
v -0.222521 3.971943 -0.974928
vn -0.0000 -0.1249 -0.9922
vn 0.2198 -0.1249 -0.9675
vn 0.2208 -0.1249 -0.9673
vn 0.4322 -0.1249 -0.8931
vn 0.4305 -0.1249 -0.8939
vn 0.6208 -0.1249 -0.7739
vn 0.6186 -0.1249 -0.7757
vn 0.7757 -0.1249 -0.6186
vn 0.8939 -0.1249 -0.4305
vn 0.9671 -0.1249 -0.2218
vn 0.9673 -0.1249 -0.2208
vn 0.9922 -0.1249 -0.0000
vn 0.9675 -0.1249 0.2198
vn 0.9673 -0.1249 0.2208
vn 0.8939 -0.1249 0.4305
vn 0.7757 -0.1249 0.6186
vn 0.6208 -0.1249 0.7739
vn 0.6186 -0.1249 0.7757
vn 0.4322 -0.1249 0.8931
vn 0.4305 -0.1249 0.8939
vn 0.2198 -0.1249 0.9675
vn 0.2208 -0.1249 0.9673
vn -0.0000 -0.1249 0.9922
vn -0.2218 -0.1249 0.9671
vn -0.2208 -0.1249 0.9673
vn -0.4287 -0.1249 0.8948
vn -0.4305 -0.1249 0.8939
vn -0.6165 -0.1249 0.7774
vn -0.6186 -0.1249 0.7757
vn -0.7757 -0.1249 0.6186
vn -0.8939 -0.1249 0.4305
vn -0.9675 -0.1249 0.2198
vn -0.9673 -0.1249 0.2208
vn -0.9922 -0.1249 -0.0000
vn -0.9671 -0.1249 -0.2218
vn -0.9673 -0.1249 -0.2208
vn -0.8939 -0.1249 -0.4305
vn -0.7757 -0.1249 -0.6186
vn -0.6165 -0.1249 -0.7774
vn -0.6186 -0.1249 -0.7757
vn -0.4287 -0.1249 -0.8948
vn -0.4305 -0.1249 -0.8939
vn -0.2218 -0.1249 -0.9671
vn -0.2208 -0.1249 -0.9673
vt 1.000000 0.000000
vt 1.000000 1.000000
vt 0.964286 1.000000
vt 0.964286 0.000000
vt 0.928571 1.000000
vt 0.928571 0.000000
vt 0.892857 1.000000
vt 0.892857 0.000000
vt 0.857143 1.000000
vt 0.857143 0.000000
vt 0.821429 1.000000
vt 0.821429 0.000000
vt 0.785714 1.000000
vt 0.785714 0.000000
vt 0.750000 1.000000
vt 0.750000 0.000000
vt 0.714286 1.000000
vt 0.714286 0.000000
vt 0.678572 1.000000
vt 0.678572 0.000000
vt 0.642857 1.000000
vt 0.642857 0.000000
vt 0.607143 1.000000
vt 0.607143 0.000000
vt 0.571429 1.000000
vt 0.571429 0.000000
vt 0.535715 1.000000
vt 0.535715 0.000000
vt 0.500000 1.000000
vt 0.500000 0.000000
vt 0.464286 1.000000
vt 0.464286 0.000000
vt 0.428572 1.000000
vt 0.428572 0.000000
vt 0.392857 1.000000
vt 0.392857 0.000000
vt 0.357143 1.000000
vt 0.357143 0.000000
vt 0.321429 1.000000
vt 0.321429 0.000000
vt 0.285714 1.000000
vt 0.285714 0.000000
vt 0.250000 1.000000
vt 0.250000 0.000000
vt 0.214286 1.000000
vt 0.214286 0.000000
vt 0.178572 1.000000
vt 0.178572 0.000000
vt 0.142857 1.000000
vt 0.142857 0.000000
vt 0.107143 1.000000
vt 0.107143 0.000000
vt 0.071429 1.000000
vt 0.071429 0.000000
vt 0.035714 1.000000
vt 0.035714 0.000000
vt 0.000000 1.000000
vt 0.000000 0.000000
s 1
f 1/1/1 2/2/1 4/3/3 3/4/2
f 3/4/2 4/3/3 6/5/5 5/6/4
f 5/6/4 6/5/5 8/7/7 7/8/6
f 7/8/6 8/7/7 10/9/8 9/10/8
f 9/10/8 10/9/8 12/11/9 11/12/9
f 11/12/9 12/11/9 14/13/11 13/14/10
f 13/14/10 14/13/11 16/15/12 15/16/12
f 15/16/12 16/15/12 18/17/14 17/18/13
f 17/18/13 18/17/14 20/19/15 19/20/15
f 19/20/15 20/19/15 22/21/16 21/22/16
f 21/22/16 22/21/16 24/23/18 23/24/17
f 23/24/17 24/23/18 26/25/20 25/26/19
f 25/26/19 26/25/20 28/27/22 27/28/21
f 27/28/21 28/27/22 30/29/23 29/30/23
f 29/30/23 30/29/23 32/31/25 31/32/24
f 31/32/24 32/31/25 34/33/27 33/34/26
f 33/34/26 34/33/27 36/35/29 35/36/28
f 35/36/28 36/35/29 38/37/30 37/38/30
f 37/38/30 38/37/30 40/39/31 39/40/31
f 39/40/31 40/39/31 42/41/33 41/42/32
f 41/42/32 42/41/33 44/43/34 43/44/34
f 43/44/34 44/43/34 46/45/36 45/46/35
f 45/46/35 46/45/36 48/47/37 47/48/37
f 47/48/37 48/47/37 50/49/38 49/50/38
f 49/50/38 50/49/38 52/51/40 51/52/39
f 51/52/39 52/51/40 54/53/42 53/54/41
f 53/54/41 54/53/42 56/55/44 55/56/43
f 55/56/43 56/55/44 2/57/1 1/58/1
