# Blender 5.0.1
# www.blender.org
mtllib spinning_open_cone.mtl
o Cylinder
v 0.000000 -0.500000 -1.000000
v -0.919008 0.500000 -1.512207
v 0.222521 -0.500000 -0.974928
v -0.559469 0.500000 -1.678792
v 0.433884 -0.500000 -0.900969
v -0.171876 0.500000 -1.761195
v 0.623490 -0.500000 -0.781831
v 0.224336 0.500000 -1.755284
v 0.781831 -0.500000 -0.623490
v 0.609299 0.500000 -1.661356
v 0.900969 -0.500000 -0.433884
v 0.963709 0.500000 -1.484120
v 0.974928 -0.500000 -0.222521
v 1.269795 0.500000 -1.232465
v 1.000000 -0.500000 0.000000
v 1.512207 0.500000 -0.919008
v 0.974928 -0.500000 0.222521
v 1.678792 0.500000 -0.559469
v 0.900969 -0.500000 0.433884
v 1.761195 0.500000 -0.171876
v 0.781831 -0.500000 0.623490
v 1.755284 0.500000 0.224336
v 0.623490 -0.500000 0.781831
v 1.661356 0.500000 0.609299
v 0.433884 -0.500000 0.900969
v 1.484120 0.500000 0.963709
v 0.222521 -0.500000 0.974928
v 1.232465 0.500000 1.269795
v 0.000000 -0.500000 1.000000
v 0.919008 0.500000 1.512207
v -0.222521 -0.500000 0.974928
v 0.559469 0.500000 1.678792
v -0.433884 -0.500000 0.900969
v 0.171876 0.500000 1.761195
v -0.623490 -0.500000 0.781831
v -0.224336 0.500000 1.755284
v -0.781831 -0.500000 0.623490
v -0.609299 0.500000 1.661356
v -0.900969 -0.500000 0.433884
v -0.963709 0.500000 1.484120
v -0.974928 -0.500000 0.222521
v -1.269795 0.500000 1.232465
v -1.000000 -0.500000 0.000000
v -1.512207 0.500000 0.919008
v -0.974928 -0.500000 -0.222521
v -1.678792 0.500000 0.559469
v -0.900969 -0.500000 -0.433884
v -1.761195 0.500000 0.171876
v -0.781831 -0.500000 -0.623490
v -1.755284 0.500000 -0.224336
v -0.623490 -0.500000 -0.781831
v -1.661356 0.500000 -0.609299
v -0.433884 -0.500000 -0.900969
v -1.484120 0.500000 -0.963709
v -0.222521 -0.500000 -0.974928
v -1.232465 0.500000 -1.269795
v -0.005416 -0.250000 -1.192378
v -0.231898 0.000000 -1.365226
v -0.639273 0.250000 -1.441804
v -0.302414 0.250000 -1.547906
v 0.077708 0.000000 -1.382599
v 0.260048 -0.250000 -1.163688
v 0.049610 0.250000 -1.576391
v 0.383417 0.000000 -1.330642
v 0.512473 -0.250000 -1.076646
v 0.399146 0.250000 -1.525828
v 0.669900 0.000000 -1.211962
v 0.739201 -0.250000 -0.935616
v 0.728667 0.250000 -1.398754
v 0.922791 0.000000 -1.032509
v 0.928862 -0.250000 -0.747670
v 1.021650 0.250000 -1.201541
v 1.129409 0.000000 -0.801282
v 1.071945 -0.250000 -0.522234
v 1.263403 0.250000 -0.944077
v 1.279394 0.000000 -0.529875
v 1.161277 -0.250000 -0.270610
v 1.441804 0.250000 -0.639273
v 1.365226 0.000000 -0.231898
v 1.192378 -0.250000 -0.005416
v 1.547906 0.250000 -0.302414
v 1.382599 0.000000 0.077708
v 1.163688 -0.250000 0.260048
v 1.576391 0.250000 0.049610
v 1.330642 0.000000 0.383417
v 1.076646 -0.250000 0.512473
v 1.525828 0.250000 0.399146
v 1.211962 0.000000 0.669900
v 0.935616 -0.250000 0.739201
v 1.398754 0.250000 0.728667
v 1.032509 0.000000 0.922791
v 0.747670 -0.250000 0.928862
v 1.201540 0.250000 1.021650
v 0.801282 0.000000 1.129409
v 0.522233 -0.250000 1.071945
v 0.944077 0.250000 1.263403
v 0.529875 0.000000 1.279394
v 0.270610 -0.250000 1.161277
v 0.639273 0.250000 1.441804
v 0.231898 0.000000 1.365226
v 0.005416 -0.250000 1.192378
v 0.302414 0.250000 1.547906
v -0.077708 0.000000 1.382599
v -0.260049 -0.250000 1.163688
v -0.049610 0.250000 1.576391
v -0.383417 0.000000 1.330642
v -0.512473 -0.250000 1.076646
v -0.399146 0.250000 1.525828
v -0.669900 0.000000 1.211962
v -0.739201 -0.250000 0.935616
v -0.728667 0.250000 1.398754
v -0.922791 0.000000 1.032509
v -0.928862 -0.250000 0.747670
v -1.021650 0.250000 1.201541
v -1.129409 0.000000 0.801282
v -1.071945 -0.250000 0.522234
v -1.263403 0.250000 0.944077
v -1.279394 0.000000 0.529875
v -1.161277 -0.250000 0.270610
v -1.441804 0.250000 0.639273
v -1.365226 0.000000 0.231898
v -1.192378 -0.250000 0.005416
v -1.547906 0.250000 0.302414
v -1.382599 0.000000 -0.077708
v -1.163688 -0.250000 -0.260048
v -1.576391 0.250000 -0.049610
v -1.330642 0.000000 -0.383417
v -1.076646 -0.250000 -0.512473
v -1.525828 0.250000 -0.399146
v -1.211962 0.000000 -0.669900
v -0.935616 -0.250000 -0.739201
v -1.398754 0.250000 -0.728667
v -1.032509 0.000000 -0.922791
v -0.747670 -0.250000 -0.928862
v -1.201541 0.250000 -1.021650
v -0.801282 0.000000 -1.129409
v -0.522233 -0.250000 -1.071945
v -0.944077 0.250000 -1.263403
v -0.529875 0.000000 -1.279394
v -0.270610 -0.250000 -1.161277
vn -0.0010 -0.6099 -0.7925
vn -0.3986 -0.6103 -0.6846
vn 0.1753 -0.6099 -0.7729
vn -0.2362 -0.6103 -0.7561
vn 0.3429 -0.6099 -0.7145
vn -0.0621 -0.6103 -0.7897
vn 0.4933 -0.6099 -0.6202
vn 0.1152 -0.6103 -0.7837
vn 0.6190 -0.6099 -0.4949
vn 0.2867 -0.6103 -0.7384
vn 0.7136 -0.6099 -0.3448
vn 0.4439 -0.6103 -0.6561
vn 0.7724 -0.6099 -0.1773
vn 0.5787 -0.6103 -0.5409
vn 0.7925 -0.6099 -0.0010
vn 0.6846 -0.6103 -0.3986
vn 0.7729 -0.6099 0.1753
vn 0.7561 -0.6103 -0.2362
vn 0.7145 -0.6099 0.3429
vn 0.7897 -0.6103 -0.0621
vn 0.6202 -0.6099 0.4933
vn 0.7837 -0.6103 0.1152
vn 0.4949 -0.6099 0.6190
vn 0.7384 -0.6103 0.2867
vn 0.3448 -0.6099 0.7136
vn 0.6561 -0.6103 0.4439
vn 0.1773 -0.6099 0.7724
vn 0.5409 -0.6103 0.5787
vn 0.0010 -0.6099 0.7925
vn 0.3986 -0.6103 0.6846
vn -0.1753 -0.6099 0.7729
vn 0.2362 -0.6103 0.7561
vn -0.3429 -0.6099 0.7145
vn 0.0621 -0.6103 0.7897
vn -0.4933 -0.6099 0.6202
vn -0.1152 -0.6103 0.7837
vn -0.6190 -0.6099 0.4949
vn -0.2867 -0.6103 0.7384
vn -0.7136 -0.6099 0.3448
vn -0.4439 -0.6103 0.6561
vn -0.7724 -0.6099 0.1773
vn -0.5787 -0.6103 0.5409
vn -0.7925 -0.6099 0.0010
vn -0.6846 -0.6103 0.3986
vn -0.7729 -0.6099 -0.1753
vn -0.7561 -0.6103 0.2362
vn -0.7145 -0.6099 -0.3429
vn -0.7897 -0.6103 0.0621
vn -0.6202 -0.6099 -0.4933
vn -0.7837 -0.6103 -0.1152
vn -0.4949 -0.6099 -0.6190
vn -0.7384 -0.6103 -0.2867
vn -0.3448 -0.6099 -0.7136
vn -0.6561 -0.6103 -0.4439
vn -0.1773 -0.6099 -0.7724
vn -0.5409 -0.6103 -0.5787
vn -0.0215 -0.6104 -0.7918
vn -0.1470 -0.6120 -0.7771
vn -0.3100 -0.6115 -0.7280
vn -0.1402 -0.6115 -0.7787
vn 0.0296 -0.6120 -0.7903
vn 0.1552 -0.6104 -0.7767
vn 0.0366 -0.6115 -0.7904
vn 0.2047 -0.6120 -0.7639
vn 0.3242 -0.6104 -0.7227
vn 0.2115 -0.6115 -0.7624
vn 0.3696 -0.6120 -0.6992
vn 0.4769 -0.6104 -0.6324
vn 0.3759 -0.6115 -0.6962
vn 0.5159 -0.6120 -0.5994
vn 0.6056 -0.6104 -0.5105
vn 0.5214 -0.6115 -0.5951
vn 0.6364 -0.6120 -0.4696
vn 0.7040 -0.6104 -0.3629
vn 0.6407 -0.6115 -0.4642
vn 0.7249 -0.6120 -0.3162
vn 0.7671 -0.6104 -0.1971
vn 0.7280 -0.6115 -0.3100
vn 0.7771 -0.6120 -0.1470
vn 0.7918 -0.6104 -0.0215
vn 0.7787 -0.6115 -0.1402
vn 0.7903 -0.6120 0.0296
vn 0.7767 -0.6104 0.1552
vn 0.7904 -0.6115 0.0366
vn 0.7639 -0.6120 0.2047
vn 0.7227 -0.6104 0.3242
vn 0.7624 -0.6115 0.2115
vn 0.6992 -0.6120 0.3696
vn 0.6324 -0.6104 0.4769
vn 0.6962 -0.6115 0.3759
vn 0.5994 -0.6120 0.5159
vn 0.5105 -0.6104 0.6056
vn 0.5951 -0.6115 0.5214
vn 0.4696 -0.6120 0.6364
vn 0.3629 -0.6104 0.7040
vn 0.4642 -0.6115 0.6407
vn 0.3162 -0.6120 0.7249
vn 0.1971 -0.6104 0.7671
vn 0.3100 -0.6115 0.7280
vn 0.1470 -0.6120 0.7771
vn 0.0215 -0.6104 0.7918
vn 0.1402 -0.6115 0.7787
vn -0.0296 -0.6120 0.7903
vn -0.1552 -0.6104 0.7767
vn -0.0366 -0.6115 0.7904
vn -0.2047 -0.6120 0.7639
vn -0.3242 -0.6104 0.7227
vn -0.2115 -0.6115 0.7624
vn -0.3696 -0.6120 0.6992
vn -0.4769 -0.6104 0.6324
vn -0.3759 -0.6115 0.6962
vn -0.5159 -0.6120 0.5994
vn -0.6056 -0.6104 0.5105
vn -0.5214 -0.6115 0.5951
vn -0.6364 -0.6120 0.4696
vn -0.7040 -0.6104 0.3629
vn -0.6407 -0.6115 0.4642
vn -0.7249 -0.6120 0.3162
vn -0.7671 -0.6104 0.1971
vn -0.7280 -0.6115 0.3100
vn -0.7771 -0.6120 0.1470
vn -0.7918 -0.6104 0.0215
vn -0.7787 -0.6115 0.1402
vn -0.7903 -0.6120 -0.0296
vn -0.7767 -0.6104 -0.1552
vn -0.7904 -0.6115 -0.0366
vn -0.7639 -0.6120 -0.2047
vn -0.7227 -0.6104 -0.3242
vn -0.7624 -0.6115 -0.2115
vn -0.6992 -0.6120 -0.3696
vn -0.6324 -0.6104 -0.4769
vn -0.6962 -0.6115 -0.3759
vn -0.5994 -0.6120 -0.5159
vn -0.5105 -0.6104 -0.6056
vn -0.5951 -0.6115 -0.5214
vn -0.4696 -0.6120 -0.6364
vn -0.3629 -0.6104 -0.7040
vn -0.4642 -0.6115 -0.6407
vn -0.3162 -0.6120 -0.7249
vn -0.1971 -0.6104 -0.7671
vt 1.000000 0.750000
vt 1.000000 1.000000
vt 0.964286 1.000000
vt 0.964286 0.750000
vt 0.928571 1.000000
vt 0.928571 0.750000
vt 0.892857 1.000000
vt 0.892857 0.750000
vt 0.857143 1.000000
vt 0.857143 0.750000
vt 0.821429 1.000000
vt 0.821429 0.750000
vt 0.785714 1.000000
vt 0.785714 0.750000
vt 0.750000 1.000000
vt 0.750000 0.750000
vt 0.714286 1.000000
vt 0.714286 0.750000
vt 0.678572 1.000000
vt 0.678572 0.750000
vt 0.642857 1.000000
vt 0.642857 0.750000
vt 0.607143 1.000000
vt 0.607143 0.750000
vt 0.571429 1.000000
vt 0.571429 0.750000
vt 0.535715 1.000000
vt 0.535715 0.750000
vt 0.500000 1.000000
vt 0.500000 0.750000
vt 0.464286 1.000000
vt 0.464286 0.750000
vt 0.428572 1.000000
vt 0.428572 0.750000
vt 0.392857 1.000000
vt 0.392857 0.750000
vt 0.357143 1.000000
vt 0.357143 0.750000
vt 0.321429 1.000000
vt 0.321429 0.750000
vt 0.285714 1.000000
vt 0.285714 0.750000
vt 0.250000 1.000000
vt 0.250000 0.750000
vt 0.214286 1.000000
vt 0.214286 0.750000
vt 0.178572 1.000000
vt 0.178572 0.750000
vt 0.142857 1.000000
vt 0.142857 0.750000
vt 0.107143 1.000000
vt 0.107143 0.750000
vt 0.071429 1.000000
vt 0.071429 0.750000
vt 0.035714 1.000000
vt 0.035714 0.750000
vt 0.000000 1.000000
vt 0.000000 0.750000
vt 0.035714 0.000000
vt 0.035714 0.250000
vt 0.000000 0.250000
vt 0.000000 0.000000
vt 0.035714 0.500000
vt 0.000000 0.500000
vt 0.071429 0.000000
vt 0.071429 0.250000
vt 0.071429 0.500000
vt 0.107143 0.000000
vt 0.107143 0.250000
vt 0.107143 0.500000
vt 0.142857 0.000000
vt 0.142857 0.250000
vt 0.142857 0.500000
vt 0.178572 0.000000
vt 0.178572 0.250000
vt 0.178572 0.500000
vt 0.214286 0.000000
vt 0.214286 0.250000
vt 0.214286 0.500000
vt 0.250000 0.000000
vt 0.250000 0.250000
vt 0.250000 0.500000
vt 0.285714 0.000000
vt 0.285714 0.250000
vt 0.285714 0.500000
vt 0.321429 0.000000
vt 0.321429 0.250000
vt 0.321429 0.500000
vt 0.357143 0.000000
vt 0.357143 0.250000
vt 0.357143 0.500000
vt 0.392857 0.000000
vt 0.392857 0.250000
vt 0.392857 0.500000
vt 0.428572 0.000000
vt 0.428572 0.250000
vt 0.428572 0.500000
vt 0.464286 0.000000
vt 0.464286 0.250000
vt 0.464286 0.500000
vt 0.500000 0.000000
vt 0.500000 0.250000
vt 0.500000 0.500000
vt 0.535715 0.000000
vt 0.535715 0.250000
vt 0.535715 0.500000
vt 0.571429 0.000000
vt 0.571429 0.250000
vt 0.571429 0.500000
vt 0.607143 0.000000
vt 0.607143 0.250000
vt 0.607143 0.500000
vt 0.642857 0.000000
vt 0.642857 0.250000
vt 0.642857 0.500000
vt 0.678572 0.000000
vt 0.678572 0.250000
vt 0.678572 0.500000
vt 0.714286 0.000000
vt 0.714286 0.250000
vt 0.714286 0.500000
vt 0.750000 0.000000
vt 0.750000 0.250000
vt 0.750000 0.500000
vt 0.785714 0.000000
vt 0.785714 0.250000
vt 0.785714 0.500000
vt 0.821429 0.000000
vt 0.821429 0.250000
vt 0.821428 0.500000
vt 0.857143 0.000000
vt 0.857143 0.250000
vt 0.857143 0.500000
vt 0.892857 0.000000
vt 0.892857 0.250000
vt 0.892857 0.500000
vt 0.928571 0.000000
vt 0.928572 0.250000
vt 0.928571 0.500000
vt 0.964286 0.000000
vt 0.964286 0.250000
vt 0.964286 0.500000
vt 1.000000 0.000000
vt 1.000000 0.250000
vt 1.000000 0.500000
s 1
f 59/1/59 2/2/2 4/3/4 60/4/60
f 60/4/60 4/3/4 6/5/6 63/6/63
f 63/6/63 6/5/6 8/7/8 66/8/66
f 66/8/66 8/7/8 10/9/10 69/10/69
f 69/10/69 10/9/10 12/11/12 72/12/72
f 72/12/72 12/11/12 14/13/14 75/14/75
f 75/14/75 14/13/14 16/15/16 78/16/78
f 78/16/78 16/15/16 18/17/18 81/18/81
f 81/18/81 18/17/18 20/19/20 84/20/84
f 84/20/84 20/19/20 22/21/22 87/22/87
f 87/22/87 22/21/22 24/23/24 90/24/90
f 90/24/90 24/23/24 26/25/26 93/26/93
f 93/26/93 26/25/26 28/27/28 96/28/96
f 96/28/96 28/27/28 30/29/30 99/30/99
f 99/30/99 30/29/30 32/31/32 102/32/102
f 102/32/102 32/31/32 34/33/34 105/34/105
f 105/34/105 34/33/34 36/35/36 108/36/108
f 108/36/108 36/35/36 38/37/38 111/38/111
f 111/38/111 38/37/38 40/39/40 114/40/114
f 114/40/114 40/39/40 42/41/42 117/42/117
f 117/42/117 42/41/42 44/43/44 120/44/120
f 120/44/120 44/43/44 46/45/46 123/46/123
f 123/46/123 46/45/46 48/47/48 126/48/126
f 126/48/126 48/47/48 50/49/50 129/50/129
f 129/50/129 50/49/50 52/51/52 132/52/132
f 132/52/132 52/51/52 54/53/54 135/54/135
f 135/54/135 54/53/54 56/55/56 138/56/138
f 138/56/138 56/55/56 2/57/2 59/58/59
f 55/59/55 140/60/140 57/61/57 1/62/1
f 140/60/140 139/63/139 58/64/58 57/61/57
f 139/63/139 138/56/138 59/58/59 58/64/58
f 53/65/53 137/66/137 140/60/140 55/59/55
f 137/66/137 136/67/136 139/63/139 140/60/140
f 136/67/136 135/54/135 138/56/138 139/63/139
f 51/68/51 134/69/134 137/66/137 53/65/53
f 134/69/134 133/70/133 136/67/136 137/66/137
f 133/70/133 132/52/132 135/54/135 136/67/136
f 49/71/49 131/72/131 134/69/134 51/68/51
f 131/72/131 130/73/130 133/70/133 134/69/134
f 130/73/130 129/50/129 132/52/132 133/70/133
f 47/74/47 128/75/128 131/72/131 49/71/49
f 128/75/128 127/76/127 130/73/130 131/72/131
f 127/76/127 126/48/126 129/50/129 130/73/130
f 45/77/45 125/78/125 128/75/128 47/74/47
f 125/78/125 124/79/124 127/76/127 128/75/128
f 124/79/124 123/46/123 126/48/126 127/76/127
f 43/80/43 122/81/122 125/78/125 45/77/45
f 122/81/122 121/82/121 124/79/124 125/78/125
f 121/82/121 120/44/120 123/46/123 124/79/124
f 41/83/41 119/84/119 122/81/122 43/80/43
f 119/84/119 118/85/118 121/82/121 122/81/122
f 118/85/118 117/42/117 120/44/120 121/82/121
f 39/86/39 116/87/116 119/84/119 41/83/41
f 116/87/116 115/88/115 118/85/118 119/84/119
f 115/88/115 114/40/114 117/42/117 118/85/118
f 37/89/37 113/90/113 116/87/116 39/86/39
f 113/90/113 112/91/112 115/88/115 116/87/116
f 112/91/112 111/38/111 114/40/114 115/88/115
f 35/92/35 110/93/110 113/90/113 37/89/37
f 110/93/110 109/94/109 112/91/112 113/90/113
f 109/94/109 108/36/108 111/38/111 112/91/112
f 33/95/33 107/96/107 110/93/110 35/92/35
f 107/96/107 106/97/106 109/94/109 110/93/110
f 106/97/106 105/34/105 108/36/108 109/94/109
f 31/98/31 104/99/104 107/96/107 33/95/33
f 104/99/104 103/100/103 106/97/106 107/96/107
f 103/100/103 102/32/102 105/34/105 106/97/106
f 29/101/29 101/102/101 104/99/104 31/98/31
f 101/102/101 100/103/100 103/100/103 104/99/104
f 100/103/100 99/30/99 102/32/102 103/100/103
f 27/104/27 98/105/98 101/102/101 29/101/29
f 98/105/98 97/106/97 100/103/100 101/102/101
f 97/106/97 96/28/96 99/30/99 100/103/100
f 25/107/25 95/108/95 98/105/98 27/104/27
f 95/108/95 94/109/94 97/106/97 98/105/98
f 94/109/94 93/26/93 96/28/96 97/106/97
f 23/110/23 92/111/92 95/108/95 25/107/25
f 92/111/92 91/112/91 94/109/94 95/108/95
f 91/112/91 90/24/90 93/26/93 94/109/94
f 21/113/21 89/114/89 92/111/92 23/110/23
f 89/114/89 88/115/88 91/112/91 92/111/92
f 88/115/88 87/22/87 90/24/90 91/112/91
f 19/116/19 86/117/86 89/114/89 21/113/21
f 86/117/86 85/118/85 88/115/88 89/114/89
f 85/118/85 84/20/84 87/22/87 88/115/88
f 17/119/17 83/120/83 86/117/86 19/116/19
f 83/120/83 82/121/82 85/118/85 86/117/86
f 82/121/82 81/18/81 84/20/84 85/118/85
f 15/122/15 80/123/80 83/120/83 17/119/17
f 80/123/80 79/124/79 82/121/82 83/120/83
f 79/124/79 78/16/78 81/18/81 82/121/82
f 13/125/13 77/126/77 80/123/80 15/122/15
f 77/126/77 76/127/76 79/124/79 80/123/80
f 76/127/76 75/14/75 78/16/78 79/124/79
f 11/128/11 74/129/74 77/126/77 13/125/13
f 74/129/74 73/130/73 76/127/76 77/126/77
f 73/130/73 72/12/72 75/14/75 76/127/76
f 9/131/9 71/132/71 74/129/74 11/128/11
f 71/132/71 70/133/70 73/130/73 74/129/74
f 70/133/70 69/10/69 72/12/72 73/130/73
f 7/134/7 68/135/68 71/132/71 9/131/9
f 68/135/68 67/136/67 70/133/70 71/132/71
f 67/136/67 66/8/66 69/10/69 70/133/70
f 5/137/5 65/138/65 68/135/68 7/134/7
f 65/138/65 64/139/64 67/136/67 68/135/68
f 64/139/64 63/6/63 66/8/66 67/136/67
f 3/140/3 62/141/62 65/138/65 5/137/5
f 62/141/62 61/142/61 64/139/64 65/138/65
f 61/142/61 60/4/60 63/6/63 64/139/64
f 1/143/1 57/144/57 62/141/62 3/140/3
f 57/144/57 58/145/58 61/142/61 62/141/62
f 58/145/58 59/1/59 60/4/60 61/142/61
